<svg width="18" height="18" viewBox="0 0 18 18" fill="none" xmlns="http://www.w3.org/2000/svg">
<path d="M13.0279 1.5053C13.911 0.866957 15.1147 0.79603 15.9928 1.5083C16.8979 2.24155 17.2495 3.46629 16.814 4.47425M5.03607 1.55225C4.14698 0.870953 2.90626 0.779047 2.00718 1.5083C1.10211 2.24155 0.750473 3.46629 1.18603 4.47525M9.99897 2.57221H8.00103C6.41136 2.57221 4.8868 3.2037 3.76274 4.32776C2.63867 5.45183 2.00718 6.97638 2.00718 8.56605V10.4991C2.00718 12.0887 2.63867 13.6133 3.76274 14.7374C4.8868 15.8614 6.41136 16.4929 8.00103 16.4929H9.99897C11.5886 16.4929 13.1132 15.8614 14.2373 14.7374C15.3613 13.6133 15.9928 12.0887 15.9928 10.4991V8.56605C15.9928 6.97638 15.3613 5.45183 14.2373 4.32776C13.1132 3.2037 11.5886 2.57221 9.99897 2.57221Z" stroke="white" stroke-width="1.42857" stroke-linecap="round" stroke-linejoin="round"/>
<path d="M8.99999 5.50415V9.50005H12.4964M3.50564 14.9944L1.50769 16.9924M14.4944 14.9944L16.4923 16.9924" stroke="white" stroke-width="1.42857" stroke-linecap="round" stroke-linejoin="round"/>
</svg>
