<svg width="46" height="45" viewBox="0 0 46 45" fill="none" xmlns="http://www.w3.org/2000/svg">
<rect x="0.25" y="0.25" width="45.5" height="44.5" rx="9.75" stroke="white" stroke-width="0.5"/>
<path d="M35.48 34.7727H34.92C34.3677 34.7727 33.92 34.325 33.92 33.7727V9.61364C33.92 9.45089 33.8652 9.29481 33.7677 9.17973C33.6702 9.06465 33.5379 9 33.4 9H26.12C25.9821 9 25.8498 9.06465 25.7523 9.17973C25.6548 9.29481 25.6 9.45089 25.6 9.61364V15.3636C25.6 15.9159 25.1523 16.3636 24.6 16.3636H18.84C18.7021 16.3636 18.5698 16.4283 18.4723 16.5434C18.3748 16.6584 18.32 16.8145 18.32 16.9773V22.7273C18.32 23.2796 17.8723 23.7273 17.32 23.7273H12.6C12.4621 23.7273 12.3298 23.7919 12.2323 23.907C12.1348 24.0221 12.08 24.1782 12.08 24.3409V33.7727C12.08 34.325 11.6323 34.7727 11.08 34.7727H10.52C10.3821 34.7727 10.2498 34.8374 10.1523 34.9525C10.0548 35.0675 10 35.2236 10 35.3864C10 35.5491 10.0548 35.7052 10.1523 35.8203C10.2498 35.9354 10.3821 36 10.52 36H35.48C35.6179 36 35.7502 35.9354 35.8477 35.8203C35.9452 35.7052 36 35.5491 36 35.3864C36 35.2236 35.9452 35.0675 35.8477 34.9525C35.7502 34.8374 35.6179 34.7727 35.48 34.7727ZM26.64 11.2273C26.64 10.675 27.0877 10.2273 27.64 10.2273H31.88C32.4323 10.2273 32.88 10.675 32.88 11.2273V33.7727C32.88 34.325 32.4323 34.7727 31.88 34.7727H27.64C27.0877 34.7727 26.64 34.325 26.64 33.7727V11.2273ZM19.36 18.5909C19.36 18.0386 19.8077 17.5909 20.36 17.5909H24.6C25.1523 17.5909 25.6 18.0386 25.6 18.5909V33.7727C25.6 34.325 25.1523 34.7727 24.6 34.7727H20.36C19.8077 34.7727 19.36 34.325 19.36 33.7727V18.5909ZM13.12 25.9545C13.12 25.4023 13.5677 24.9545 14.12 24.9545H17.32C17.8723 24.9545 18.32 25.4023 18.32 25.9545V33.7727C18.32 34.325 17.8723 34.7727 17.32 34.7727H14.12C13.5677 34.7727 13.12 34.325 13.12 33.7727V25.9545Z" fill="white"/>
</svg>
