<svg width="15" height="21" viewBox="0 0 15 21" fill="none" xmlns="http://www.w3.org/2000/svg">
<path d="M7.34446 16.4493C6.89184 16.4494 6.45185 16.3001 6.09272 16.0246C5.73358 15.7491 5.47538 15.3628 5.35815 14.9257" stroke="white" stroke-width="1.25" stroke-linecap="round"/>
<path d="M5.72415 2.75392C6.37289 1.65076 6.69777 1.09867 7.16145 1.01642C7.28247 0.994527 7.40643 0.994527 7.52745 1.01642C7.99113 1.09867 8.31601 1.65076 8.96475 2.75392L10.6796 5.66965C11.878 7.70748 12.8132 9.88905 13.4627 12.1622C14.5186 15.8562 11.7458 19.5337 7.90271 19.5337H6.78619C2.94414 19.5337 0.170296 15.8562 1.22617 12.1622C1.8757 9.88905 2.81086 7.70748 4.00926 5.66965L5.72415 2.75392Z" stroke="white" stroke-width="1.25"/>
</svg>
