<svg width="17" height="17" viewBox="0 0 17 17" fill="none" xmlns="http://www.w3.org/2000/svg">
<g clip-path="url(#clip0_2092_832)">
<path d="M4.24064 1.14395C-1.41322 4.4035 -1.41322 12.5965 4.24064 15.8561C9.8945 19.1156 17.0002 15.019 17.0002 8.5C17.0002 1.98097 9.8945 -2.11557 4.24064 1.14395ZM1.11105 5.77213C2.67933 7.68025 1.8956 7.1904 4.98934 8.28279L4.51692 9.23714C4.08538 10.6339 5.71456 10.1646 5.69128 11.7618L5.09715 14.4624C5.04568 14.6964 5.19948 14.8884 5.4413 14.8884C6.53209 13.0215 6.24873 13.541 8.48161 11.5996C9.22005 10.9739 9.16782 10.0266 8.3636 9.48507L6.24279 8.05691C5.8738 7.84072 5.20652 8.01726 5.1339 8.1262L3.18554 7.15255C2.57398 6.6901 2.66973 5.96401 3.6899 5.60067C4.56078 6.49862 4.6166 6.65022 4.5656 5.15841L5.4413 4.27387H6.75073C6.99178 4.27387 7.11839 3.97793 7.04189 3.74608C6.80239 3.15838 6.436 2.72491 5.39212 2.25881C4.55235 1.96629 5.04781 3.42158 4.15 3.24939L3.25205 2.94704C4.05291 1.46386 6.73868 0.560735 8.71805 0.640721C6.77374 0.864012 6.93541 1.63051 7.16832 2.18935C7.59416 2.98988 8.00737 3.64863 9.19272 2.25084C10.4293 2.01702 10.996 1.74901 9.70232 0.730669C11.4932 1.00841 13.0843 1.89052 14.2605 3.16203C13.5862 2.95684 13.1494 3.375 13.5603 3.57933C14.0363 3.76042 13.9145 4.06875 13.6239 4.27377C13.2547 4.27265 12.7687 4.18452 12.7152 4.71607C12.6047 5.49435 11.8162 4.84786 11.9477 5.57092C12.2401 6.36315 12.5647 6.03855 12.9095 5.55684C13.2441 5.0665 13.7468 5.1603 14.5327 5.15837C14.9529 5.62992 15.4027 5.87732 15.9438 5.99834C16.0306 6.25717 16.1038 6.52036 16.163 6.78685C13.8254 6.27443 13.4103 5.44418 11.8612 6.78928C11.0418 7.73264 11.4904 9.89307 13.4584 9.54142C13.7023 9.54142 13.9452 9.734 13.9997 9.96628C14.4277 11.4914 14.6179 12.9892 14.8616 13.1045C9.01123 20.4236 -1.75541 14.3555 1.11105 5.77213Z" fill="white"/>
</g>
<defs>
<clipPath id="clip0_2092_832">
<rect width="17" height="17" fill="white"/>
</clipPath>
</defs>
</svg>
