<svg width="253" height="80" viewBox="0 0 253 80" fill="none" xmlns="http://www.w3.org/2000/svg">
<path d="M1 50.3099H22.7105C23.0663 50.3099 23.3952 50.1209 23.5744 49.8136L28.6623 41.0871C29.0891 40.3551 30.1757 40.4523 30.4658 41.2484L37.319 60.0553C37.6646 61.0035 39.0376 60.901 39.2385 59.912L50.955 2.24664C51.1755 1.16147 52.7347 1.1861 52.9208 2.2777L65.8838 78.3167C66.0657 79.3832 67.576 79.4416 67.8395 78.3923L74.7025 51.0664C74.8142 50.6217 75.214 50.3099 75.6724 50.3099H83.6466C84.0311 50.3099 84.3816 50.0894 84.548 49.7428L91.5509 35.158C91.9197 34.3899 93.0187 34.4054 93.3657 35.1836L99.8455 49.7172C100.006 50.0777 100.364 50.3099 100.759 50.3099H112.718H125.327H149.97C150.326 50.3099 150.655 50.1209 150.834 49.8136L155.823 41.2566C156.265 40.4977 157.401 40.6371 157.647 41.4804L162.939 59.6341C163.229 60.6279 164.652 60.5807 164.875 59.5699L177.571 2.08307C177.809 1.00741 179.357 1.05009 179.535 2.13721L192.02 78.427C192.194 79.4892 193.693 79.5647 193.973 78.5254L201.366 51.0501C201.484 50.6134 201.88 50.3099 202.332 50.3099H209.77C210.135 50.3099 210.471 50.111 210.647 49.791L218.796 34.94C219.19 34.222 220.233 34.2562 220.579 34.9984L226.513 47.721C226.678 48.0731 227.031 48.2982 227.42 48.2982H252" stroke="#78F123" stroke-linecap="round"/>
</svg>
