<svg width="24" height="23" viewBox="0 0 24 23" fill="none" xmlns="http://www.w3.org/2000/svg">
<path d="M21.6926 7.95223V13.8909H18.3189L13.7105 9.46592C13.7105 9.46592 12.9703 8.10748 14.4107 7.95223H21.6926ZM16.845 2.4865C16.845 3.04236 16.6109 3.57545 16.1943 3.96851C15.7776 4.36156 15.2125 4.58238 14.6233 4.58238C14.034 4.58238 13.4689 4.36156 13.0523 3.96851C12.6356 3.57545 12.4016 3.04236 12.4016 2.4865C12.4016 1.93064 12.6356 1.39755 13.0523 1.00449C13.4689 0.61144 14.034 0.390625 14.6233 0.390625C15.2125 0.390625 15.7776 0.61144 16.1943 1.00449C16.6109 1.39755 16.845 1.93064 16.845 2.4865Z" fill="black"/>
<path d="M14.8811 11.3843L12.4351 9.03977V5.33066C12.4401 5.27603 12.4428 5.22069 12.4431 5.16463C12.4431 4.82886 12.3576 4.498 12.1938 4.1999C12.03 3.9018 11.7927 3.64518 11.5018 3.45164C11.211 3.2581 10.8751 3.1333 10.5224 3.08774C10.1698 3.04219 9.81073 3.07721 9.47543 3.18986L9.47315 3.178L9.41601 3.2107C9.16282 3.30416 8.92972 3.44017 8.72801 3.61213L4.24229 6.22838C4.21435 6.24395 4.1868 6.26 4.15962 6.27653L4.08305 6.32109L4.08496 6.32433C3.79444 6.51733 3.55735 6.77337 3.39366 7.07089C3.22997 7.3684 3.14448 7.69867 3.14439 8.03388L3.13639 8.0292V20.8862C3.11046 21.1123 3.1358 21.341 3.21071 21.5571C3.28563 21.7733 3.40841 21.9719 3.57091 22.1399C3.73341 22.3079 3.93192 22.4413 4.15326 22.5314C4.3746 22.6215 4.61372 22.6661 4.85474 22.6624C5.09577 22.6586 5.33319 22.6066 5.55127 22.5096C5.76934 22.4127 5.96308 22.2732 6.11962 22.1003C6.27616 21.9273 6.39194 21.725 6.45926 21.5066C6.52658 21.2883 6.54391 21.0589 6.5101 20.8337V9.89184L6.45562 9.86202L6.48039 9.84872L6.5101 9.89184L10.213 7.61233V10.0471L13.3707 12.9296L13.3775 12.9228C13.4829 13.0245 13.6091 13.1049 13.7484 13.1591C13.8877 13.2133 14.0373 13.2401 14.188 13.2381C14.3387 13.236 14.4873 13.2051 14.6249 13.1471C14.7626 13.0891 14.8862 13.0053 14.9884 12.9008C15.0906 12.7963 15.1692 12.6733 15.2193 12.5392C15.2695 12.4051 15.2903 12.2629 15.2803 12.121C15.2703 11.9791 15.2299 11.8407 15.1614 11.714C15.0929 11.5874 14.9978 11.4752 14.8819 11.3843H14.8811ZM19.9383 6.14213C19.9383 6.23477 19.8993 6.32362 19.8298 6.38913C19.7604 6.45464 19.6662 6.49144 19.568 6.49144C19.4698 6.49144 19.3756 6.45464 19.3062 6.38913C19.2367 6.32362 19.1977 6.23477 19.1977 6.14213C19.1977 6.04948 19.2367 5.96063 19.3062 5.89512C19.3756 5.82962 19.4698 5.79281 19.568 5.79281C19.6662 5.79281 19.7604 5.82962 19.8298 5.89512C19.8993 5.96063 19.9383 6.04948 19.9383 6.14213ZM19.0743 6.53025C19.0743 6.62289 19.0353 6.71174 18.9658 6.77725C18.8964 6.84276 18.8022 6.87956 18.704 6.87956C18.6058 6.87956 18.5116 6.84276 18.4422 6.77725C18.3727 6.71174 18.3337 6.62289 18.3337 6.53025C18.3337 6.43761 18.3727 6.34876 18.4422 6.28325C18.5116 6.21774 18.6058 6.18094 18.704 6.18094C18.8022 6.18094 18.8964 6.21774 18.9658 6.28325C19.0353 6.34876 19.0743 6.43761 19.0743 6.53025ZM16.981 4.70175C16.9807 4.63232 17.0097 4.56563 17.0616 4.51636C17.1134 4.4671 17.1839 4.43929 17.2575 4.43905C17.3311 4.43881 17.4018 4.46616 17.454 4.51509C17.5063 4.56402 17.5358 4.63052 17.536 4.69995C17.5361 4.73434 17.5291 4.7684 17.5152 4.80021C17.5014 4.83202 17.4811 4.86095 17.4554 4.88534C17.4035 4.93461 17.333 4.96242 17.2594 4.96266C17.223 4.96278 17.1869 4.95612 17.1532 4.94307C17.1194 4.93002 17.0888 4.91084 17.0629 4.88661C17.0107 4.83768 16.9812 4.77119 16.981 4.70175ZM16.6575 4.96805C16.6589 5.00329 16.6527 5.03844 16.6394 5.07138C16.6261 5.10433 16.6058 5.1344 16.5799 5.1598C16.5539 5.18519 16.5228 5.20539 16.4884 5.21919C16.454 5.23299 16.417 5.2401 16.3796 5.2401C16.3422 5.2401 16.3052 5.23299 16.2708 5.21919C16.2364 5.20539 16.2053 5.18519 16.1794 5.1598C16.1534 5.1344 16.1332 5.10433 16.1198 5.07138C16.1065 5.03844 16.1003 5.00329 16.1017 4.96805C16.1044 4.9002 16.1348 4.83596 16.1867 4.78885C16.2385 4.74174 16.3076 4.71541 16.3796 4.71541C16.4516 4.71541 16.5208 4.74174 16.5726 4.78885C16.6244 4.83596 16.6549 4.9002 16.6575 4.96805ZM15.9215 5.58869C15.9229 5.62388 15.9168 5.65899 15.9035 5.6919C15.8902 5.72481 15.87 5.75485 15.8441 5.78023C15.8182 5.80561 15.7872 5.8258 15.7528 5.8396C15.7185 5.8534 15.6815 5.86053 15.6442 5.86055C15.6069 5.86058 15.5699 5.8535 15.5355 5.83974C15.5012 5.82598 15.4701 5.80583 15.4442 5.78049C15.4182 5.75514 15.398 5.72513 15.3847 5.69223C15.3713 5.65934 15.3651 5.62425 15.3665 5.58905C15.3691 5.52129 15.3995 5.45713 15.4512 5.41004C15.5029 5.36296 15.5719 5.33663 15.6438 5.33658C15.7157 5.33654 15.7848 5.36278 15.8366 5.40979C15.8884 5.45681 15.9188 5.52093 15.9215 5.58869ZM15.5467 6.45766C15.5467 6.52724 15.5174 6.59396 15.4652 6.64316C15.4131 6.69236 15.3423 6.72 15.2686 6.72C15.1948 6.72 15.1241 6.69236 15.0719 6.64316C15.0198 6.59396 14.9905 6.52724 14.9905 6.45766C14.9905 6.38808 15.0198 6.32135 15.0719 6.27215C15.1241 6.22295 15.1948 6.19531 15.2686 6.19531C15.3423 6.19531 15.4131 6.22295 15.4652 6.27215C15.5174 6.32135 15.5467 6.38808 15.5467 6.45766ZM15.5467 7.3162C15.5467 7.38578 15.5174 7.45251 15.4652 7.50171C15.4131 7.55091 15.3423 7.57855 15.2686 7.57855C15.1948 7.57855 15.1241 7.55091 15.0719 7.50171C15.0198 7.45251 14.9905 7.38578 14.9905 7.3162C14.9905 7.24663 15.0198 7.1799 15.0719 7.1307C15.1241 7.0815 15.1948 7.05386 15.2686 7.05386C15.3423 7.05386 15.4131 7.0815 15.4652 7.1307C15.5174 7.1799 15.5467 7.24663 15.5467 7.3162ZM16.4152 7.3162C16.4152 7.38578 16.3859 7.45251 16.3338 7.50171C16.2816 7.55091 16.2109 7.57855 16.1371 7.57855C16.0634 7.57855 15.9927 7.55091 15.9405 7.50171C15.8884 7.45251 15.8591 7.38578 15.8591 7.3162C15.8591 7.24663 15.8884 7.1799 15.9405 7.1307C15.9927 7.0815 16.0634 7.05386 16.1371 7.05386C16.2109 7.05386 16.2816 7.0815 16.3338 7.1307C16.3859 7.1799 16.4152 7.24663 16.4152 7.3162ZM16.4152 6.52055C16.4152 6.59013 16.3859 6.65685 16.3338 6.70605C16.2816 6.75525 16.2109 6.78289 16.1371 6.78289C16.0634 6.78289 15.9927 6.75525 15.9405 6.70605C15.8884 6.65685 15.8591 6.59013 15.8591 6.52055C15.8591 6.45097 15.8884 6.38424 15.9405 6.33504C15.9927 6.28584 16.0634 6.2582 16.1371 6.2582C16.2109 6.2582 16.2816 6.28584 16.3338 6.33504C16.3859 6.38424 16.4152 6.45097 16.4152 6.52055ZM16.765 5.78275C16.7664 5.81795 16.7602 5.85305 16.7469 5.88596C16.7336 5.91887 16.7134 5.94891 16.6875 5.97429C16.6617 5.99967 16.6306 6.01986 16.5963 6.03366C16.5619 6.04747 16.525 6.05459 16.4876 6.05461C16.4503 6.05464 16.4133 6.04756 16.379 6.0338C16.3446 6.02005 16.3135 5.99989 16.2876 5.97455C16.2617 5.9492 16.2414 5.91919 16.2281 5.8863C16.2147 5.8534 16.2086 5.81831 16.2099 5.78311C16.2125 5.71535 16.2429 5.65119 16.2946 5.60411C16.3463 5.55702 16.4154 5.53069 16.4873 5.53065C16.5591 5.5306 16.6282 5.55684 16.68 5.60386C16.7318 5.65087 16.7622 5.715 16.765 5.78275ZM17.5261 5.45356C17.5275 5.48881 17.5213 5.52395 17.508 5.5569C17.4946 5.58985 17.4744 5.61992 17.4484 5.64531C17.4225 5.67071 17.3914 5.69091 17.357 5.70471C17.3226 5.7185 17.2856 5.72562 17.2482 5.72562C17.2108 5.72562 17.1738 5.7185 17.1394 5.70471C17.105 5.69091 17.0739 5.67071 17.0479 5.64531C17.022 5.61992 17.0018 5.58985 16.9884 5.5569C16.9751 5.52395 16.9689 5.48881 16.9703 5.45356C16.973 5.38571 17.0034 5.32148 17.0552 5.27437C17.1071 5.22725 17.1762 5.20093 17.2482 5.20093C17.3202 5.20093 17.3893 5.22725 17.4412 5.27437C17.493 5.32148 17.5234 5.38571 17.5261 5.45356ZM18.4545 4.80525C18.4545 4.88169 18.4223 4.955 18.365 5.00905C18.3077 5.0631 18.23 5.09347 18.149 5.09347C18.0679 5.09347 17.9902 5.0631 17.9329 5.00905C17.8756 4.955 17.8434 4.88169 17.8434 4.80525C17.8434 4.72881 17.8756 4.6555 17.9329 4.60145C17.9902 4.5474 18.0679 4.51703 18.149 4.51703C18.23 4.51703 18.3077 4.5474 18.365 4.60145C18.4223 4.6555 18.4545 4.72881 18.4545 4.80525ZM18.4183 5.71303C18.4183 5.75088 18.4104 5.78836 18.395 5.82333C18.3797 5.8583 18.3572 5.89007 18.3288 5.91683C18.3004 5.9436 18.2668 5.96483 18.2297 5.97931C18.1926 5.9938 18.1529 6.00125 18.1128 6.00125C18.0726 6.00125 18.0329 5.9938 17.9958 5.97931C17.9588 5.96483 17.9251 5.9436 17.8967 5.91683C17.8684 5.89007 17.8459 5.8583 17.8305 5.82333C17.8151 5.78836 17.8072 5.75088 17.8072 5.71303C17.8072 5.63659 17.8394 5.56328 17.8967 5.50923C17.954 5.45518 18.0317 5.42481 18.1128 5.42481C18.1938 5.42481 18.2715 5.45518 18.3288 5.50923C18.3861 5.56328 18.4183 5.63659 18.4183 5.71303ZM19.2922 5.27639C19.2922 5.31424 19.2843 5.35172 19.2689 5.38669C19.2536 5.42166 19.2311 5.45343 19.2027 5.48019C19.1743 5.50696 19.1407 5.52819 19.1036 5.54267C19.0665 5.55716 19.0268 5.56461 18.9867 5.56461C18.9465 5.56461 18.9068 5.55716 18.8698 5.54267C18.8327 5.52819 18.799 5.50696 18.7706 5.48019C18.7423 5.45343 18.7198 5.42166 18.7044 5.38669C18.6891 5.35172 18.6811 5.31424 18.6811 5.27639C18.6811 5.19995 18.7133 5.12664 18.7706 5.07259C18.8279 5.01854 18.9056 4.98817 18.9867 4.98817C19.0677 4.98817 19.1454 5.01854 19.2027 5.07259C19.26 5.12664 19.2922 5.19995 19.2922 5.27639Z" fill="black"/>
</svg>
