<svg width="16" height="16" viewBox="0 0 16 16" fill="none" xmlns="http://www.w3.org/2000/svg">
<path d="M15.8592 9.7258C15.7975 9.66421 15.7202 9.62058 15.6357 9.59957C15.5511 9.57856 15.4624 9.58098 15.379 9.60655C14.1306 9.98389 12.8031 10.0154 11.5382 9.69781C10.2732 9.38018 9.11811 8.7253 8.196 7.80294C7.27389 6.88059 6.61932 5.72533 6.30203 4.46027C5.98474 3.19522 6.01664 1.86779 6.39431 0.619435C6.41954 0.536187 6.42168 0.44765 6.40051 0.363281C6.37933 0.278911 6.33564 0.201878 6.27409 0.140411C6.21254 0.0789434 6.13545 0.0353503 6.05105 0.0142881C5.96665 -0.00677401 5.87812 -0.00451395 5.7949 0.0208268C4.13957 0.528676 2.68649 1.54547 1.64226 2.92664C0.45854 4.49845 -0.117571 6.44496 0.0199794 8.40784C0.157529 10.3707 0.999481 12.2178 2.39085 13.6092C3.78222 15.0006 5.62935 15.8425 7.59223 15.9801C9.55511 16.1176 11.5016 15.5415 13.0734 14.3578C14.4546 13.3136 15.4714 11.8605 15.9792 10.2052C16.0046 10.1219 16.0068 10.0333 15.9856 9.94885C15.9645 9.86441 15.9208 9.78731 15.8592 9.7258ZM12.498 13.5903C11.111 14.6306 9.39534 15.1356 7.66595 15.0127C5.93656 14.8898 4.30954 14.1472 3.08359 12.9213C1.85764 11.6953 1.11505 10.0683 0.992149 8.33891C0.869245 6.60953 1.37428 4.89384 2.41453 3.50684C3.15547 2.52443 4.13349 1.74603 5.25712 1.24445C5.02056 2.5438 5.10262 3.88113 5.49626 5.14181C5.88991 6.40249 6.58339 7.54891 7.51727 8.48279C8.45115 9.41667 9.59757 10.1102 10.8583 10.5038C12.1189 10.8974 13.4563 10.9795 14.7556 10.7429C14.2554 11.868 13.4778 12.8478 12.4956 13.5903H12.498Z" fill="white"/>
</svg>
