<svg width="46" height="45" viewBox="0 0 46 45" fill="none" xmlns="http://www.w3.org/2000/svg">
<path d="M12.7408 26.0009C12.5101 27.511 13.5403 28.5586 14.8013 29.0808C19.6363 31.0849 26.3638 31.0849 31.1987 29.0808C32.4597 28.5586 33.4899 27.5099 33.2592 26.0009C33.1183 25.0724 32.4174 24.3 31.8985 23.5449C31.2193 22.5439 31.1521 21.453 31.151 20.2917C31.1521 15.8045 27.5034 12.1667 23 12.1667C18.4966 12.1667 14.8479 15.8045 14.8479 20.2917C14.8479 21.453 14.7808 22.545 14.1004 23.5449C13.5826 24.3 12.8828 25.0724 12.7408 26.0009Z" stroke="white" stroke-linecap="round" stroke-linejoin="round"/>
<path d="M18.6667 30.5834C19.1628 32.4521 20.9157 33.8334 23 33.8334C25.0854 33.8334 26.8361 32.4521 27.3333 30.5834" stroke="white" stroke-linecap="round" stroke-linejoin="round"/>
<rect x="0.25" y="0.25" width="45.5" height="44.5" rx="9.75" stroke="white" stroke-width="0.5"/>
</svg>
