<svg width="17" height="17" viewBox="0 0 17 17" fill="none" xmlns="http://www.w3.org/2000/svg">
<path d="M2.12144 10.2815C1.97944 11.2109 2.61344 11.8555 3.38944 12.1769C6.36478 13.4102 10.5048 13.4102 13.4801 12.1769C14.2561 11.8555 14.8901 11.2102 14.7481 10.2815C14.6614 9.71019 14.2301 9.23486 13.9108 8.77019C13.4928 8.15419 13.4514 7.48286 13.4508 6.76819C13.4514 4.00686 11.2061 1.76819 8.43478 1.76819C5.66344 1.76819 3.41811 4.00686 3.41811 6.76819C3.41811 7.48286 3.37678 8.15486 2.95811 8.77019C2.63944 9.23486 2.20878 9.71019 2.12144 10.2815Z" stroke="white" stroke-linecap="round" stroke-linejoin="round"/>
<path d="M5.76807 13.1016C6.0734 14.2516 7.15207 15.1016 8.43473 15.1016C9.71807 15.1016 10.7954 14.2516 11.1014 13.1016" stroke="white" stroke-linecap="round" stroke-linejoin="round"/>
</svg>
