<svg width="15" height="24" viewBox="0 0 15 24" fill="none" xmlns="http://www.w3.org/2000/svg">
<path d="M11.6751 2.30495C11.6751 2.91626 11.4323 3.50253 11 3.93479C10.5678 4.36705 9.9815 4.60989 9.37019 4.60989C8.75888 4.60989 8.17261 4.36705 7.74034 3.93479C7.30808 3.50253 7.06524 2.91626 7.06524 2.30495C7.06524 1.69364 7.30808 1.10736 7.74034 0.675103C8.17261 0.242842 8.75888 0 9.37019 0C9.9815 0 10.5678 0.242842 11 0.675103C11.4323 1.10736 11.6751 1.69364 11.6751 2.30495ZM8.47299 14.0584L11.4654 17.0111C11.5801 17.1243 11.6698 17.2603 11.7287 17.4104L13.3243 21.4758C13.436 21.7603 13.4301 22.0776 13.3079 22.3578C13.1857 22.638 12.9572 22.8582 12.6726 22.9699C12.388 23.0817 12.0707 23.0758 11.7905 22.9535C11.5103 22.8313 11.2901 22.6028 11.1784 22.3182L9.67214 18.4799L4.5275 13.4033C4.40318 13.2807 4.30834 13.1314 4.25015 12.9668C4.19195 12.8022 4.17191 12.6265 4.19155 12.453L4.60356 8.81123C3.61013 9.7989 2.84373 11.1871 2.25655 13.027C2.21265 13.1737 2.13996 13.3101 2.04273 13.4284C1.94551 13.5466 1.82569 13.6444 1.69029 13.7158C1.55488 13.7872 1.40659 13.831 1.25409 13.8445C1.10158 13.858 0.947916 13.841 0.802064 13.7944C0.656212 13.7479 0.521096 13.6727 0.404608 13.5734C0.288121 13.474 0.192596 13.3525 0.123614 13.2158C0.0546309 13.0791 0.0135727 12.93 0.00283698 12.7773C-0.00789874 12.6246 0.0119031 12.4713 0.0610862 12.3263C1.13865 8.94953 2.92786 6.42216 5.93006 5.26335L5.94331 5.25816C6.70797 4.97407 7.50318 4.99712 8.21195 5.36303C8.89249 5.71511 9.3771 6.32304 9.69461 7.00416L10.068 7.81089C10.3492 8.42055 10.5855 8.93455 10.8131 9.38517C11.1317 10.019 11.3882 10.4397 11.6417 10.7347C11.8768 11.0078 12.1102 11.1761 12.4081 11.2925C12.7285 11.4176 13.1774 11.504 13.8706 11.5247C14.0229 11.5278 14.173 11.561 14.3124 11.6224C14.4518 11.6839 14.5776 11.7723 14.6826 11.8827C14.7875 11.9931 14.8696 12.1231 14.924 12.2654C14.9784 12.4077 15.0041 12.5593 14.9995 12.7116C14.9949 12.8638 14.9602 13.0136 14.8974 13.1524C14.8345 13.2911 14.7448 13.416 14.6334 13.5199C14.522 13.6238 14.3911 13.7045 14.2483 13.7575C14.1055 13.8105 13.9536 13.8346 13.8014 13.8285C12.9688 13.8037 12.2295 13.6971 11.5697 13.4396C10.888 13.1733 10.3504 12.7683 9.89283 12.2352C9.60472 11.8999 9.35117 11.5167 9.11491 11.1L8.47299 14.0584Z" fill="black"/>
<path d="M4.19151 15.1089L6.10174 16.9413L5.2224 19.9072C5.1544 20.1367 5.01664 20.3393 4.82826 20.4869L1.86986 22.8051C1.75067 22.8984 1.61427 22.9674 1.46844 23.008C1.32261 23.0487 1.1702 23.0602 1.01992 23.0419C0.869642 23.0236 0.724434 22.9759 0.592588 22.9015C0.460741 22.8271 0.344839 22.7275 0.251497 22.6083C0.158155 22.4891 0.0892019 22.3527 0.0485749 22.2069C0.00794794 22.0611 -0.00355774 21.9087 0.0147154 21.7584C0.0329886 21.6081 0.0806826 21.4629 0.155074 21.331C0.229465 21.1992 0.329097 21.0833 0.448282 20.99L3.11741 18.8994L3.92126 16.1853L4.19151 15.1089Z" fill="black"/>
</svg>
