<svg width="17" height="17" viewBox="0 0 17 17" fill="none" xmlns="http://www.w3.org/2000/svg">
<g clip-path="url(#clip0_2092_605)">
<path d="M15.6304 5.3125L16.6929 6.375L14.3438 8.71582L11.6875 6.06787L6.06787 11.6875L8.71582 14.3438L6.375 16.6929L5.3125 15.6304L3.98438 16.9502L2.39062 15.3647C2.33529 15.4146 2.27995 15.4727 2.22461 15.5391C2.16927 15.6055 2.1084 15.6663 2.04199 15.7217C1.97559 15.777 1.90641 15.8268 1.83447 15.8711C1.76253 15.9154 1.68229 15.9375 1.59375 15.9375C1.44987 15.9375 1.32536 15.8849 1.22021 15.7798C1.11507 15.6746 1.0625 15.5501 1.0625 15.4062C1.0625 15.3232 1.08187 15.2458 1.12061 15.1738C1.15934 15.1019 1.20915 15.0327 1.27002 14.9663C1.33089 14.8999 1.39453 14.839 1.46094 14.7837C1.52734 14.7284 1.58545 14.6702 1.63525 14.6094L0.0498047 13.0156L1.36963 11.6875L0.307129 10.625L2.65625 8.28418L5.3125 10.9321L10.9321 5.3125L8.28418 2.65625L10.625 0.307129L11.6875 1.36963L13.0156 0.0498047L14.6094 1.63525C14.6647 1.58545 14.7201 1.52734 14.7754 1.46094C14.8307 1.39453 14.8916 1.33366 14.958 1.27832C15.0244 1.22298 15.0936 1.17318 15.1655 1.12891C15.2375 1.08464 15.3177 1.0625 15.4062 1.0625C15.5501 1.0625 15.6746 1.11507 15.7798 1.22021C15.8849 1.32536 15.9375 1.44987 15.9375 1.59375C15.9375 1.67676 15.9181 1.75423 15.8794 1.82617C15.8407 1.89811 15.7909 1.96729 15.73 2.03369C15.6691 2.1001 15.6055 2.16097 15.5391 2.21631C15.4727 2.27165 15.4146 2.32975 15.3647 2.39062L16.9502 3.98438L15.6304 5.3125ZM4.55713 14.875L2.125 12.4429L1.55225 13.0156L3.98438 15.4478L4.55713 14.875ZM7.22168 14.3438L2.65625 9.77832L1.81787 10.625L6.375 15.1821L7.22168 14.3438ZM12.4429 2.125L14.875 4.55713L15.4478 3.98438L13.0156 1.55225L12.4429 2.125ZM15.1821 6.375L10.625 1.81787L9.77832 2.65625L14.3438 7.22168L15.1821 6.375Z" fill="white"/>
</g>
<defs>
<clipPath id="clip0_2092_605">
<rect width="17" height="17" fill="white"/>
</clipPath>
</defs>
</svg>
